# Blender v3.0.0 OBJ File: 'Assets.blend'
# www.blender.org
mtllib LampPost.mtl
o LampPost_Cube.001
v -0.057023 -1.000000 0.057023
v -0.057023 1.000000 0.057023
v -0.057023 -1.000000 -0.057023
v -0.057023 1.000000 -0.057023
v 0.057023 -1.000000 0.057023
v 0.057023 1.000000 0.057023
v 0.057023 -1.000000 -0.057023
v 0.057023 1.000000 -0.057023
v -0.130400 -1.135625 -0.130400
v -0.130400 -1.135625 0.130400
v 0.130400 -1.135625 -0.130400
v 0.130400 -1.135625 0.130400
v -0.057023 1.232190 0.057023
v -0.057023 1.232190 -0.057023
v -0.057023 1.116095 0.057023
v -0.057023 1.116095 -0.057023
v 0.082599 1.116095 0.057023
v 0.082599 1.116095 -0.057023
v -0.057023 1.232190 -0.173114
v 0.057023 1.232190 -0.173114
v 0.057023 1.232190 0.173114
v -0.057023 1.232190 0.173114
v -0.057023 1.116095 0.173114
v 0.082599 1.116095 0.147538
v -0.057023 1.116095 -0.173114
v 0.082599 1.116095 -0.147538
v 0.482757 1.232190 -0.057023
v 0.482757 1.232190 0.057023
v 0.457181 1.116095 0.057023
v 0.457181 1.116095 -0.057023
v 0.457181 1.116095 0.147538
v 0.482757 1.232190 0.173114
v 0.482757 1.232190 -0.173114
v 0.457181 1.116095 -0.147538
v 0.039710 1.307538 0.031714
v 0.039710 1.307538 -0.031714
v 0.103137 1.307538 -0.031714
v 0.103137 1.307538 0.031714
v 0.339910 1.307538 -0.031714
v 0.339910 1.307538 0.031714
v 0.039710 1.307538 -0.096278
v 0.103137 1.307538 -0.096278
v 0.103137 1.307538 0.096278
v 0.039710 1.307538 0.096278
v 0.339910 1.307538 -0.096278
v 0.339910 1.307538 0.096278
v 0.057023 1.116095 -0.057023
v 0.057023 1.116095 0.057023
v 0.057023 1.116095 -0.173114
v 0.057023 1.116095 0.173114
v 0.482757 1.116095 -0.057023
v 0.482757 1.116095 0.057023
v 0.482757 1.116095 -0.173114
v 0.482757 1.116095 0.173114
v 0.457181 1.173931 -0.057023
v 0.082599 1.173931 -0.057023
v 0.457181 1.173931 0.057023
v 0.082599 1.173931 0.057023
v 0.082599 1.173931 -0.147538
v 0.082599 1.173931 0.147538
v 0.457181 1.173931 -0.147538
v 0.457181 1.173931 0.147538
vt 0.375000 0.000000
vt 0.625000 0.000000
vt 0.625000 0.250000
vt 0.375000 0.250000
vt 0.625000 0.500000
vt 0.375000 0.500000
vt 0.625000 0.750000
vt 0.375000 0.750000
vt 0.625000 1.000000
vt 0.375000 1.000000
vt 0.375000 0.750000
vt 0.375000 0.500000
vt 0.625000 0.250000
vt 0.625000 0.000000
vt 0.625000 0.000000
vt 0.625000 0.250000
vt 0.125000 0.500000
vt 0.125000 0.750000
vt 0.375000 1.000000
vt 0.375000 0.250000
vt 0.375000 0.000000
vt 0.625000 0.750000
vt 0.625000 0.500000
vt 0.625000 0.500000
vt 0.625000 0.750000
vt 0.625000 0.500000
vt 0.625000 0.250000
vt 0.625000 0.500000
vt 0.625000 0.000000
vt 0.625000 0.000000
vt 0.625000 0.750000
vt 0.625000 0.750000
vt 0.625000 0.750000
vt 0.625000 0.750000
vt 0.625000 0.750000
vt 0.625000 1.000000
vt 0.625000 1.000000
vt 0.625000 0.750000
vt 0.625000 0.750000
vt 0.625000 1.000000
vt 0.625000 0.250000
vt 0.625000 0.500000
vt 0.625000 0.750000
vt 0.625000 0.750000
vt 0.625000 0.750000
vt 0.625000 0.000000
vt 0.625000 0.000000
vt 0.625000 0.250000
vt 0.625000 0.750000
vt 0.625000 0.500000
vt 0.625000 0.500000
vt 0.625000 0.500000
vt 0.625000 0.750000
vt 0.625000 0.750000
vt 0.625000 0.500000
vt 0.625000 0.500000
vt 0.625000 0.750000
vt 0.625000 1.000000
vt 0.625000 0.500000
vt 0.875000 0.500000
vt 0.875000 0.750000
vt 0.625000 0.750000
vt 0.875000 0.750000
vt 0.625000 0.500000
vt 0.875000 0.500000
vt 0.625000 0.500000
vt 0.625000 0.250000
vt 0.625000 0.500000
vt 0.625000 0.750000
vt 0.625000 0.500000
vt 0.625000 0.500000
vt 0.625000 0.500000
vt 0.625000 0.500000
vt 0.625000 0.500000
vt 0.625000 0.750000
vn -1.0000 0.0000 0.0000
vn 0.0000 0.0000 -1.0000
vn 1.0000 0.0000 0.0000
vn 0.0000 0.0000 1.0000
vn 0.8795 0.4758 0.0000
vn 0.0000 -1.0000 0.0000
vn 0.0000 0.4758 0.8795
vn 0.0000 0.4758 -0.8795
vn -0.8795 0.4758 0.0000
vn 0.4665 0.8845 0.0000
vn 0.0000 0.7140 0.7002
vn -0.6145 0.7889 0.0000
vn 0.0000 1.0000 0.0000
vn 0.0000 0.7140 -0.7002
usemtl None
s off
f 1/1/1 2/2/1 4/3/1 3/4/1
f 3/4/2 4/3/2 8/5/2 7/6/2
f 7/6/3 8/5/3 6/7/3 5/8/3
f 5/8/4 6/7/4 2/9/4 1/10/4
f 7/6/5 5/8/5 12/11/5 11/12/5
f 16/13/1 15/14/1 13/15/1 14/16/1
f 9/17/6 11/12/6 12/11/6 10/18/6
f 5/8/7 1/10/7 10/19/7 12/11/7
f 3/4/8 7/6/8 11/12/8 9/20/8
f 1/1/9 3/4/9 9/20/9 10/21/9
f 28/22/10 27/23/10 39/24/10 40/25/10
f 47/26/6 16/13/6 25/27/6 49/28/6
f 13/15/1 15/14/1 23/29/1 22/30/1
f 31/31/2 24/32/2 60/33/2 62/34/2
f 6/7/3 8/5/3 47/26/3 48/35/3
f 8/5/2 4/3/2 16/13/2 47/26/2
f 2/9/4 6/7/4 48/35/4 15/36/4
f 4/3/1 2/2/1 15/14/1 16/13/1
f 23/37/4 50/38/4 21/39/4 22/40/4
f 49/28/2 25/27/2 19/41/2 20/42/2
f 21/39/11 32/43/11 46/44/11 43/45/11
f 16/13/1 14/16/1 19/41/1 25/27/1
f 15/36/6 48/35/6 50/38/6 23/37/6
f 13/15/12 22/30/12 44/46/12 35/47/12
f 32/43/10 28/22/10 40/25/10 46/44/10
f 14/16/12 13/15/12 35/47/12 36/48/12
f 52/49/3 51/50/3 27/23/3 28/22/3
f 27/23/3 51/50/3 53/51/3 33/52/3
f 52/49/3 28/22/3 32/43/3 54/53/3
f 17/54/3 18/55/3 56/56/3 58/57/3
f 49/28/2 20/42/2 33/52/2 53/51/2
f 24/32/3 17/54/3 58/57/3 60/33/3
f 21/39/4 50/38/4 54/53/4 32/43/4
f 22/40/11 21/39/11 43/45/11 44/58/11
f 37/59/13 36/60/13 35/61/13 38/62/13
f 38/62/13 43/45/13 46/44/13 40/25/13
f 38/62/13 35/61/13 44/63/13 43/45/13
f 36/60/13 37/59/13 42/64/13 41/65/13
f 37/59/13 38/62/13 40/25/13 39/24/13
f 42/64/13 37/59/13 39/24/13 45/66/13
f 27/23/10 33/52/10 45/66/10 39/24/10
f 33/52/14 20/42/14 42/64/14 45/66/14
f 19/41/12 14/16/12 36/48/12 41/67/12
f 20/42/14 19/41/14 41/67/14 42/64/14
f 18/55/6 17/54/6 48/35/6 47/26/6
f 26/68/6 18/55/6 47/26/6 49/28/6
f 17/54/6 24/32/6 50/38/6 48/35/6
f 29/69/6 30/70/6 51/50/6 52/49/6
f 30/70/6 34/71/6 53/51/6 51/50/6
f 31/31/6 29/69/6 52/49/6 54/53/6
f 34/71/6 26/68/6 49/28/6 53/51/6
f 24/32/6 31/31/6 54/53/6 50/38/6
f 56/56/6 59/72/6 61/73/6 55/74/6
f 58/57/6 56/56/6 55/74/6 57/75/6
f 60/33/6 58/57/6 57/75/6 62/34/6
f 29/69/1 31/31/1 62/34/1 57/75/1
f 30/70/1 29/69/1 57/75/1 55/74/1
f 18/55/3 26/68/3 59/72/3 56/56/3
f 26/68/4 34/71/4 61/73/4 59/72/4
f 34/71/1 30/70/1 55/74/1 61/73/1
